<?xml version="1.0" encoding="UTF-8" standalone="no"?>
<svg width="100px" height="38px" viewBox="0 0 100 38" version="1.1" xmlns="http://www.w3.org/2000/svg" xmlns:xlink="http://www.w3.org/1999/xlink">
    <!-- Generator: Sketch 46.2 (44496) - http://www.bohemiancoding.com/sketch -->
    <title>logo</title>
    <desc>Created with Sketch.</desc>
    <defs></defs>
    <g id="Symbols" stroke="none" stroke-width="1" fill="none" fill-rule="evenodd">
        <g id="header" fill="#111111">
            <g id="logo">
                <g>
                    <path d="M33.3409524,20.2661524 C33.3409524,20.2661524 35.1895238,22.2158667 38.0001905,22.2158667 C39.9500952,22.2158667 41.5451429,21.0511048 41.5451429,19.1267238 C41.5451429,14.6446286 32.6573333,15.7842476 32.6573333,10.2638667 C32.6573333,7.70672381 34.9108571,5.47815238 38.2028571,5.47815238 C41.2921905,5.47815238 42.9634286,7.20005714 42.9634286,7.20005714 L42.1022857,8.66881905 C42.1022857,8.66881905 40.5321905,7.14939048 38.2028571,7.14939048 C35.9238095,7.14939048 34.4554286,8.64348571 34.4554286,10.213581 C34.4554286,14.4421524 43.3434286,13.2267238 43.3434286,19.0758667 C43.3434286,21.7347238 41.2921905,23.8871048 37.9497143,23.8871048 C34.3034286,23.8871048 32.3030476,21.6082476 32.3030476,21.6082476 L33.3409524,20.2661524 L33.3409524,20.2661524 Z" id="Fill-1"></path>
                    <path d="M47.0145143,5.78215238 L48.7868952,5.78215238 L48.7868952,17.3539619 C48.7868952,20.4181524 50.7621333,22.2665333 53.8261333,22.2665333 C56.8901333,22.2665333 58.8905143,20.4181524 58.8905143,17.3034857 L58.8905143,5.78215238 L60.6375619,5.78215238 L60.6375619,17.3794857 C60.6375619,21.329581 57.877181,23.8871048 53.8514667,23.8871048 C49.7996571,23.8871048 47.0145143,21.329581 47.0145143,17.3794857 L47.0145143,5.78215238 Z" id="Fill-3"></path>
                    <path d="M65.2964952,20.2661524 C65.2964952,20.2661524 67.1448762,22.2158667 69.9553524,22.2158667 C71.9050667,22.2158667 73.5003048,21.0511048 73.5003048,19.1267238 C73.5003048,14.6446286 64.6124952,15.7842476 64.6124952,10.2638667 C64.6124952,7.70672381 66.8664,5.47815238 70.158019,5.47815238 C73.2471619,5.47815238 74.9184,7.20005714 74.9184,7.20005714 L74.0576381,8.66881905 C74.0576381,8.66881905 72.4875429,7.14939048 70.158019,7.14939048 C67.8793524,7.14939048 66.4104,8.64348571 66.4104,10.213581 C66.4104,14.4421524 75.2984,13.2267238 75.2984,19.0758667 C75.2984,21.7347238 73.2471619,23.8871048 69.9048762,23.8871048 C66.2584,23.8871048 64.2582095,21.6082476 64.2582095,21.6082476 L65.2964952,20.2661524 Z" id="Fill-5"></path>
                    <polygon id="Fill-7" points="79.1975429 5.78215238 80.944781 5.78215238 80.944781 13.8850095 91.2758286 13.8850095 91.2758286 5.78215238 93.0230667 5.78215238 93.0230667 23.5831048 91.2758286 23.5831048 91.2758286 15.4549143 80.944781 15.4549143 80.944781 23.5831048 79.1975429 23.5831048"></polygon>
                    <polygon id="Fill-9" points="98.1881905 23.5830476 99.9354286 23.5830476 99.9354286 5.78209524 98.1881905 5.78209524"></polygon>
                    <path d="M78.5792381,36.3861333 C79.8590476,36.3861333 80.675619,35.596419 80.675619,34.3032762 C80.675619,33.0099429 79.7908571,32.1929905 78.5655238,32.1929905 L75.883619,32.1929905 L75.883619,36.3861333 L78.5792381,36.3861333 Z M78.484,31.6486095 C79.5457143,31.6486095 80.2946667,30.9135619 80.2946667,29.7834667 C80.2946667,28.6672762 79.5866667,27.9455619 78.4702857,27.9455619 L75.883619,27.9455619 L75.883619,31.6486095 L78.484,31.6486095 Z M75.2982857,27.4009905 L78.4973333,27.4009905 C79.8860952,27.4009905 80.9070476,28.3267048 80.9070476,29.7834667 C80.9070476,30.8183238 80.403619,31.512419 79.6681905,31.8663238 L79.6681905,31.8935619 C80.6074286,32.1522286 81.288381,33.0781333 81.288381,34.3032762 C81.288381,35.8960381 80.1584762,36.9307048 78.6335238,36.9307048 L75.2982857,36.9307048 L75.2982857,27.4009905 Z" id="Fill-11"></path>
                    <path d="M88.462419,32.9010095 C88.394419,31.2400571 87.4007048,30.4914857 86.270419,30.4914857 C85.0182286,30.4914857 83.8608952,31.3082476 83.6161333,32.9010095 L88.462419,32.9010095 Z M86.2843238,29.9604381 C88.1357524,29.9604381 89.0614667,31.4172 89.0614667,33.0642476 C89.0614667,33.2143429 89.0342286,33.4320571 89.0342286,33.4320571 L83.575181,33.4320571 C83.575181,35.4059619 84.9092762,36.5358667 86.4885143,36.5358667 C87.7953714,36.5358667 88.5986095,35.6781524 88.5986095,35.6781524 L88.9117524,36.1547238 C88.9117524,36.1547238 87.9588,37.0941524 86.4885143,37.0941524 C84.5688952,37.0941524 82.9761333,35.705581 82.9761333,33.540819 C82.9761333,31.2400571 84.5416571,29.9604381 86.2843238,29.9604381 L86.2843238,29.9604381 Z" id="Fill-12"></path>
                    <path d="M91.1986667,30.6820762 L90.3001905,30.6820762 L90.3001905,30.1647429 L91.1986667,30.1647429 L91.1986667,28.2316 L91.7704762,28.2316 L91.7704762,30.1647429 L93.5539048,30.1647429 L93.5539048,30.6820762 L91.7704762,30.6820762 L91.7704762,34.4256952 C91.7704762,36.2228381 92.8459048,36.4542667 93.3906667,36.4542667 C93.5811429,36.4542667 93.7034286,36.4270286 93.7034286,36.4270286 L93.7034286,36.9578857 C93.7034286,36.9578857 93.5674286,36.9851238 93.3630476,36.9851238 C92.6554286,36.9851238 91.1986667,36.7264571 91.1986667,34.4666476 L91.1986667,30.6820762 Z" id="Fill-13"></path>
                    <path d="M97.0386857,36.563219 C98.5226857,36.563219 99.3668762,35.0247429 99.3668762,33.6771238 L99.3668762,33.3095048 L98.9312571,33.3095048 C97.7737333,33.3095048 95.2962095,33.3095048 95.2962095,35.079219 C95.2962095,35.8007429 95.8817333,36.563219 97.0386857,36.563219 M98.9173524,32.7786476 L99.3668762,32.7786476 L99.3668762,32.5470286 C99.3668762,31.035981 98.5906857,30.5186476 97.5015429,30.5186476 C96.3173524,30.5186476 95.5550667,31.171981 95.5550667,31.171981 L95.228019,30.7093143 C95.228019,30.7093143 96.0449714,29.9605524 97.5289714,29.9605524 C99.0944952,29.9605524 99.9386857,30.8317905 99.9386857,32.5335048 L99.9386857,36.9308381 L99.3668762,36.9308381 L99.3668762,36.0321714 C99.3668762,35.6645524 99.4211619,35.4196 99.4211619,35.4196 L99.3939238,35.4196 C99.4076381,35.4196 98.7811619,37.0940762 97.0114476,37.0940762 C95.908781,37.0940762 94.6971619,36.4815048 94.6971619,35.1201714 C94.6971619,32.8056952 97.7057333,32.7786476 98.9173524,32.7786476" id="Fill-14"></path>
                    <path d="M12.3913714,22.6352 C13.0012762,23.2451048 13.8119429,23.5812952 14.6749905,23.5812952 C15.5376571,23.5812952 16.3485143,23.2451048 16.9582286,22.6352 L22.6359429,16.9572952 C23.8946095,15.6990095 23.8946095,13.6504381 22.6355619,12.3910095 L16.958419,6.71310476 C16.3485143,6.10339048 15.5376571,5.7672 14.6749905,5.7672 C13.8119429,5.7672 13.0012762,6.10339048 12.3913714,6.71310476 L12.2761333,6.82834286 L17.4199429,11.9727238 C18.9096571,13.462819 18.9096571,15.8862476 17.4199429,17.3757714 L12.2761333,22.5199619 L12.3913714,22.6352 Z" id="Fill-15"></path>
                    <path d="M8.7079619,10.3967429 L10.2833905,11.9725524 C11.7731048,13.4628381 11.7731048,15.8862667 10.2833905,17.3757905 L8.7079619,18.9517905 L11.8578667,22.1011238 L17.0018667,16.9571238 C18.2603429,15.6990286 18.2603429,13.6504571 17.0018667,12.3910286 L11.8578667,7.2468381 L8.7079619,10.3967429 Z" id="Fill-16"></path>
                    <path d="M11.8578857,22.1011619 L17.0016952,16.9571619 L11.8578857,22.1011619 Z" id="Fill-17"></path>
                    <path d="M6.714,12.3909714 C6.10428571,13.0008762 5.76866667,13.8119238 5.76866667,14.6744 C5.76866667,15.5368762 6.10428571,16.3477333 6.714,16.9572571 L8.28961905,18.5330667 L9.8652381,16.9572571 C11.1240952,15.6989714 11.1240952,13.6504 9.86485714,12.3909714 L8.28961905,10.8153524 L6.714,12.3909714 Z" id="Fill-18"></path>
                    <path d="M14.6749333,0.583314286 C6.90521905,0.583314286 0.58407619,6.9048381 0.58407619,14.6743619 C0.58407619,22.4440762 6.90521905,28.7650286 14.6749333,28.7650286 C22.4446476,28.7650286 28.7654095,22.4440762 28.7654095,14.6743619 C28.7654095,6.9048381 22.4446476,0.583314286 14.6749333,0.583314286 M14.6749333,29.3486476 C6.58331429,29.3486476 7.61904762e-05,22.7663619 7.61904762e-05,14.6743619 C7.61904762e-05,6.58274286 6.58331429,-0.000114285714 14.6749333,-0.000114285714 C22.7661714,-0.000114285714 29.349219,6.58274286 29.349219,14.6743619 C29.349219,22.7663619 22.7661714,29.3486476 14.6749333,29.3486476" id="Fill-19"></path>
                </g>
            </g>
        </g>
    </g>
</svg>